<?xml version="1.0" ?>
<svg id="Capa_1" style="enable-background:new 0 0 512 512;" version="1.1" viewBox="0 0 512 512" xml:space="preserve"
	xmlns="http://www.w3.org/2000/svg"
	xmlns:xlink="http://www.w3.org/1999/xlink" fill="current" stroke="current">
	<g>
		<path fill="current" stroke="current" d="M472.2,33.4h-431C19.5,33.4,2,51,2,72.6v354.6c0,21.6,17.6,39.2,39.2,39.2h431c21.6,0,39.2-17.6,39.2-39.2   V72.6C511.4,51,493.8,33.4,472.2,33.4z M492.2,240.4h-74.1v-76.9h74.1V240.4z M418.1,259.5h74.1v76.9h-74.1V259.5z M492.2,72.6   v71.7h-74.1V52.6h54.1C483.2,52.6,492.2,61.6,492.2,72.6z M21.1,259.5h81v76.9h-81V259.5z M102.1,240.4h-81v-76.9h81V240.4z    M21.1,427.2v-71.7h81v91.7h-61C30.1,447.3,21.1,438.3,21.1,427.2z M472.2,447.3h-54.1v-23.5c0-5.3-4.3-9.6-9.6-9.6   s-9.6,4.3-9.6,9.6v23.5H121.3V123.2c0-5.3-4.3-9.6-9.6-9.6c-5.3,0-9.6,4.3-9.6,9.6v21.1h-81V72.6c0-11.1,9-20.1,20.1-20.1h61v23.8   c0,5.3,4.3,9.6,9.6,9.6c5.3,0,9.6-4.3,9.6-9.6V52.6h277.6V377c0,5.3,4.3,9.6,9.6,9.6s9.6-4.3,9.6-9.6v-21.5h74.1v71.7   C492.2,438.3,483.2,447.3,472.2,447.3z"/>
		<path fill="current" stroke="current" d="M241.3,175.4c-2.7-2.8-6.8-3.8-10.5-2.3c-3.6,1.5-6,5-6,8.9v135.8c0,3.9,2.4,7.4,6,8.9   c1.2,0.5,2.4,0.7,3.5,0.7c2.6,0,5.1-1,6.9-3l64.5-67.9c3.5-3.7,3.5-9.5,0-13.2L241.3,175.4z M272.6,263.6   C272.6,263.6,272.6,263.6,272.6,263.6l-28.7,30.3V206l41.7,43.9L272.6,263.6z"/>
	</g>
</svg>